<?xml version="1.0" encoding="utf-8"?>
<!-- Generator: Adobe Illustrator 15.1.0, SVG Export Plug-In . SVG Version: 6.00 Build 0)  -->
<!DOCTYPE svg PUBLIC "-//W3C//DTD SVG 1.1//EN" "http://www.w3.org/Graphics/SVG/1.1/DTD/svg11.dtd">
<svg version="1.1" id="Layer_1" xmlns="http://www.w3.org/2000/svg" xmlns:xlink="http://www.w3.org/1999/xlink" x="0px" y="0px"
	 width="91px" height="89px" viewBox="0 0 91 89" enable-background="new 0 0 91 89" xml:space="preserve">
<g>
	<g>
		<g>
			<path fill="#AFBD63" d="M44.901,84.298c-0.672-0.665-1.326-2.152-1.517-3.27c-0.678-3.953,0.091-6.164,0.383-7.127
				c1.615-5.33,4.627-6.445,5.816-7.295c3.049-2.181,7.27-5.914,7.652-6.325c1.102-1.185,1.041-2.591,1.164-3.578
				c0.132-1.071,0.153-2.777,0.578-6.017c0.387-2.951-0.44-3.916-0.596-4.148c-0.598-0.908-1.482-2.391-2.347-3.011
				c-5.648-4.056-6.752-5.279-7.146-5.685c-2.861-2.953-4.464-4.579-5.03-5.496c-1.951-3.162-1.661-4.253-1.572-5.36
				c0.082-1.027,0.63-1.859,1.5-2.536c0.814-0.633,1.557-0.894,1.71-0.894c0.571,0,0.892,0.421,1.262,0.952
				c0.472,0.675,0.88,1.151,1.238,1.87c2.921,4.233,3.472,4.568,3.833,4.928c3.438,2.468,3.823,2.463,4.139,2.59
				c3.351,1.133,4.414,0.808,5.292,0.753c1.647-0.103,2.53-0.125,4.008-0.864c0.211-0.105,1.446-1,1.727-1.04
				c1.218-0.178,2.234,0.198,2.613-0.067c0.543-0.384-0.155-0.332-0.334-1.704c-0.73-5.672-2.08-8.545-2.435-9.232
				c-2.22-4.303-3.466-5.143-5.292-5.668c-4.461-1.283-7.154-0.849-7.974-0.742c-2.475,0.319-3.271,0.978-3.958,1.227
				c-0.149,0.054-1.062,0.607-1.152,0.63c-0.534,0.128-0.563,0.166-0.629-0.032c-0.11-0.33,0.534-0.897,0.662-1.185
				c0.567-1.276,0.451-1.943,0.438-2.325c-0.146-4.146-0.297-4.574-0.488-4.804c-0.918-1.75-1.758-2.62-2-2.844
				C45.84,5.43,42.714,3.932,42.34,3.795C41.061,3.547,38.8,3.7,37.646,3.91c-2.45,0.446-6.575,0.676-7.734,1.038
				c-0.268,0.373-0.377,2.551-0.21,3.491c1.298,7.286,0.411,7.749,0.86,8.191c1.835,1.81,2.72,1.552,4.502,1.668
				c1.27,0.083,2.014,0.124,2.969,0.342c1.098,0.251,2.308,0.375,2.372,0.855c0.108,0.829-0.358,0.565-1.157,1.541
				c-0.842,0.79-1.156,1.474-1.399,1.843c-0.408,0.621-0.588,1.37-0.862,2.136c-0.367,1.027-0.539,1.799-0.486,2.848
				c0.193,3.778,0.399,5.24,0.821,5.922c2.184,3.529,3.62,4.736,4.542,5.658c0.614,0.615,1.483,1.381,2.197,1.9
				c0.204,0.147,1.149,0.914,1.202,1.179c0.035,0.174-0.72,0.343-0.824,0.355c-2.588,0.309-4.821,1.165-5.586,1.488
				c-1.718,0.727-2.994,1.528-4.362,2.839c-2.21,2.118-3.197,3.382-3.56,4.029c-2.45,4.26-1.994,6.226-1.786,8.94
				c0.104,1.351,0.298,1.941,0.332,2.062c0.29,0.847,0.532,1.399,0.832,1.826c0.743,1.062,2.834,0.453,3.576,0.279
				c9.17-2.152,10.36-3.121,10.921-3.32c7.408-4.49,7.075-4.896,7.271-5.049c0.076-0.06,0.676-1,0.881-0.847
				c0.402,0.414,0.344,0.401,0.379,0.665c0.088,0.688,0.166,1.018,0,1.693c-0.493,2.004-1.803,3.054-3.293,4.31
				c-0.87,0.731-1.921,1.584-2.785,2.084c-0.86,0.5-2.217,1.91-2.621,2.447c-1.646,2.185-2.581,4.836-2.696,5.43
				c-0.631,3.238-1.003,5.623-0.102,8.729c0.415,1.427,1.489,3.31,3.044,3.828"/>
		</g>
		<g>
			<path fill="#AFBD63" d="M5.334,57.092l18.437-16.168h5.736L11.069,57.092L29.507,73.26h-5.736L5.334,57.092z"/>
			<path fill="#AFBD63" d="M85.318,57.092L66.88,73.26h-5.735l18.438-16.168L61.145,40.924h5.735L85.318,57.092z"/>
		</g>
	</g>
</g>
</svg>
